<svg data-v-33820e4a="" t="1631674675865" viewBox="0 0 1024 1024" version="1.1" xmlns="http://www.w3.org/2000/svg" p-id="4503" width="20" height="20" class="icon"><path data-v-33820e4a="" d="M512 0a512 512 0 1 0 512 512A512 512 0 0 0 512 0z m264.96 370.432l-20.224 16.64a376.832 376.832 0 0 1-5.888 81.408c-31.744 142.08-115.2 238.336-246.528 279.552a373.504 373.504 0 0 1-179.2 5.888 476.928 476.928 0 0 1-73.728-24.064 230.4 230.4 0 0 1-35.584-17.92L204.8 705.28a175.616 175.616 0 0 0 40.192 1.536c13.056-2.048 25.6-1.536 36.608-4.096a263.424 263.424 0 0 0 75.264-27.648 164.864 164.864 0 0 0 34.048-22.016 108.8 108.8 0 0 1-37.12-6.4 128 128 0 0 1-79.872-80.896c12.544 1.536 48.128 4.608 56.32-2.56a86.016 86.016 0 0 1-41.216-16.64A120.064 120.064 0 0 1 230.4 438.272l13.568 5.12a134.656 134.656 0 0 0 25.6 7.424 32.768 32.768 0 0 0 17.152 1.536c-6.4-7.168-16.64-12.032-23.04-20.224a130.816 130.816 0 0 1-28.16-114.944 138.752 138.752 0 0 1 13.568-32.512 119.04 119.04 0 0 0 11.52 13.568 238.848 238.848 0 0 0 37.12 36.608 369.152 369.152 0 0 0 153.6 74.752 204.8 204.8 0 0 0 56.064 7.68 122.624 122.624 0 0 1 0-59.392 124.416 124.416 0 0 1 71.424-84.736 171.264 171.264 0 0 1 28.16-8.704l15.36-1.792a126.464 126.464 0 0 1 99.072 39.68 204.8 204.8 0 0 0 65.28-21.76l15.616-8.448a129.792 129.792 0 0 1-40.704 59.136 72.704 72.704 0 0 1-14.08 10.24 253.44 253.44 0 0 0 71.68-20.224 210.688 210.688 0 0 1-42.24 49.152z" fill="#515b7d" p-id="4504"></path></svg>